<svg width="1024" height="1024" viewBox="0 0 312.5 312.5" class="css-1j8o68f"><defs id="SvgjsDefs1244"></defs><g id="SvgjsG1245" featurekey="rootContainer" transform="matrix(2.94811320754717,0,0,2.94811320754717,0,0)" fill="#111111"><rect xmlns="http://www.w3.org/2000/svg" width="106" height="106" rx="15" ry="15"></rect></g><g id="SvgjsG1246" featurekey="symbolFeature-0" transform="matrix(0.7997244872778746,0,0,0.7997244872778746,116.37920336553975,85.02632929464947)" fill="#f6f6f6"><path xmlns="http://www.w3.org/2000/svg" style="baseline-shift:baseline;block-progression:tb;color:;direction:ltr;text-indent:0;enable-background:accumulate;text-transform:none;" fill="#f6f6f6" d="M27.5,4.9688c-7.132,0-12.969,5.9302-12.969,13.062,0,5.736,3.777,10.611,8.969,12.313v39.281c-5.192,1.716-8.969,6.67-8.969,12.406,0,7.133,5.837,12.969,12.969,12.969s13-5.836,13-12.969c0-5.736-3.808-10.69-9-12.406v-0.625c0-5.929,1.815-8.24,5.156-10.344,3.341-2.103,8.602-3.393,14.282-4.781,5.679-1.388,11.839-2.905,16.937-6.719,4.632-3.465,7.961-9.08,8.531-16.781,5.24-1.673,9.094-6.573,9.094-12.344,0-7.132-5.868-13.062-13-13.062s-12.969,5.9302-12.969,13.062c0,5.701,3.732,10.551,8.875,12.281-0.422,5.483-2.394,8.262-5.344,10.469-3.339,2.499-8.429,3.982-14,5.344-5.57,1.362-11.559,2.572-16.656,5.781-0.306,0.193-0.61,0.382-0.906,0.594v-22.156c5.192-1.702,9-6.577,9-12.313,0-7.132-5.868-13.062-13-13.062zm0,8.0312c2.809,0,5.031,2.222,5.031,5.031s-2.222,4.938-5.031,4.938-5-2.129-5-4.938,2.191-5.031,5-5.031zm45,0c2.809,0,5.031,2.222,5.031,5.031s-2.222,4.938-5.031,4.938-5-2.129-5-4.938,2.191-5.031,5-5.031zm-45,64c2.809,0,5.031,2.222,5.031,5.031s-2.222,4.938-5.031,4.938-5-2.129-5-4.938,2.191-5.031,5-5.031z"></path></g><g id="SvgjsG1247" featurekey="nameFeature-0" transform="matrix(1.4067870994858174,0,0,1.4067870994858174,55.83107469027168,167.32601694279464)" fill="#f6f6f6"><path d="M14.16 32.08 c-0.02668 1.36 -0.15992 2.5533 -0.39992 3.58 s-0.63332 1.8867 -1.18 2.58 s-1.2734 1.22 -2.18 1.58 s-2.04 0.54 -3.4 0.54 c-2.3733 0 -4.1132 -0.71332 -5.22 -2.14 s-1.66 -3.4867 -1.66 -6.18 l0 -14 c0 -2.7467 0.56 -4.82 1.68 -6.22 s2.9733 -2.1 5.56 -2.1 c2.4 0 4.12 0.71332 5.16 2.14 s1.5867 3.4734 1.64 6.14 l0.04 2.56 l-3.12 0 l-0.04 -3 c0 -0.58668 -0.05332 -1.1667 -0.16 -1.74 s-0.29336 -1.0733 -0.56004 -1.5 s-0.64 -0.77336 -1.12 -1.04 s-1.12 -0.4 -1.92 -0.4 c-1.5733 0 -2.6333 0.46 -3.18 1.38 s-0.82 2.18 -0.82 3.78 l0.04 14.2 c0 1.6267 0.26 2.8334 0.78 3.62 s1.4867 1.18 2.9 1.18 c0.8 0 1.46 -0.10668 1.98 -0.32 s0.93332 -0.52 1.24 -0.92 s0.52 -0.89332 0.64 -1.48 s0.18 -1.2534 0.18 -2 l0.04 -3.24 l3.12 0 z M26.131 26.36 l0 13.64 l-3.52 0 l0 -13.64 l-6.96 -16.36 l3.88 0 l4.8 11.92 l4.88 -11.92 l3.88 0 z M48.462 37.76 c-0.77332 0.77332 -1.6932 1.3402 -2.7599 1.7002 s-2.2534 0.54 -3.56 0.54 l-6.92 0 l0 -30 l6.04 0 c1.5733 0 2.8866 0.22 3.94 0.66 s1.9 1.0333 2.54 1.78 s1.0933 1.6067 1.36 2.58 s0.4 1.9933 0.4 3.06 c0 1.0933 -0.27332 2.1 -0.82 3.02 s-1.18 1.7267 -1.9 2.42 c0.10668 0.05332 0.20668 0.12 0.3 0.2 s0.20664 0.16 0.33996 0.24 c0.34668 0.29332 0.73336 0.64664 1.16 1.06 s0.82 0.90664 1.18 1.48 s0.66 1.2266 0.9 1.96 s0.36 1.5533 0.36 2.46 c0 1.4933 -0.22 2.8066 -0.66 3.94 s-1.0733 2.1 -1.9 2.9 z M42.102000000000004 13.48 l-3.48 -0.000039062 l0 8.68 l3.88 0 c0.50668 0 0.98668 -0.10668 1.44 -0.32 s0.85332 -0.5 1.2 -0.86 s0.61336 -0.79332 0.80004 -1.3 s0.28 -1.04 0.28 -1.6 c0 -0.48 -0.06 -0.98668 -0.18 -1.52 s-0.33332 -1.0266 -0.64 -1.48 s-0.72668 -0.83332 -1.26 -1.14 s-1.2133 -0.46 -2.04 -0.46 z M42.342 25.6 l-3.72 0 l0 10.84 l3.12 0 c0.74668 0 1.48 -0.09332 2.2 -0.28 s1.36 -0.48668 1.92 -0.9 s1.0067 -0.96 1.34 -1.64 s0.5 -1.5267 0.5 -2.54 c0 -1.8933 -0.51332 -3.28 -1.54 -4.16 s-2.3 -1.32 -3.82 -1.32 z M53.793000000000006 40 l0 -30 l14.72 0 l0 3.76 l-11.36 0 l0 9.24 l11.28 0 l0 3.32 l-11.28 0 l0 9.92 l11.64 0 l0 3.76 l-15 0 z M85.28400000000002 40 l-6 -11.8 l-4.36 0 l0 11.8 l-3.32 0 l0 -30 l6.96 0 c1.5733 0 2.92 0.24668 4.04 0.74 s2.04 1.16 2.76 2 s1.2533 1.8 1.6 2.88 s0.52 2.2067 0.52 3.38 c0 0.93332 -0.11332 1.84 -0.34 2.72 s-0.55336 1.6933 -0.98004 2.44 s-0.92668 1.42 -1.5 2.02 s-1.1933 1.0733 -1.86 1.42 l6.68 12.4 l-4.2 0 z M78.32400000000001 13.32 l-3.4 0.000039062 l0 11.4 l3.64 0 c1.0933 0 1.9933 -0.16668 2.7 -0.5 s1.26 -0.77332 1.66 -1.32 s0.68 -1.1734 0.84 -1.88 s0.24 -1.4467 0.24 -2.22 s-0.12668 -1.4933 -0.38 -2.16 s-0.62 -1.2467 -1.1 -1.74 s-1.0733 -0.88 -1.78 -1.16 s-1.5134 -0.42 -2.42 -0.42 z M114.22600000000003 40 l-2.04 -8.36 l-7.76 0 l-2.04 8.36 l-3.4 0 l8 -30 l2.76 0 l7.96 30 l-3.48 0 z M108.42600000000002 15.8 l-3.16 12.44 l6.08 0 z M127.03700000000003 29.28 l-3.1599 0 l0 10.72 l-3.6 0 l0 -30 l7.32 0 c2.64 0 4.7 0.85332 6.18 2.56 s2.22 4.1068 2.22 7.2 c0 1.3867 -0.21332 2.66 -0.64 3.82 s-1.0334 2.16 -1.82 3 s-1.7334 1.5 -2.84 1.98 s-2.3267 0.72 -3.66 0.72 z M126.87700000000002 13.52 l-3 0.00011719 l0 12.16 l2.6 0 c1.12 0 2.0533 -0.16 2.8 -0.48 s1.3467 -0.75332 1.8 -1.3 s0.78 -1.18 0.98 -1.9 s0.3 -1.4933 0.3 -2.32 c0 -0.90668 -0.07332 -1.7334 -0.22 -2.48 s-0.42 -1.3934 -0.82 -1.94 s-0.96 -0.97336 -1.68 -1.28 s-1.64 -0.46 -2.76 -0.46 z M139.28800000000004 40 l0 -30 l3 0 l0 30 l-3 0 z"></path></g></svg>